<svg width="40" height="40" viewBox="0 0 40 40" fill="none" xmlns="http://www.w3.org/2000/svg">
<circle cx="20" cy="20" r="20" fill="$green"/>
<path fill-rule="evenodd" clip-rule="evenodd" d="M20 10.6667C18.6129 10.6667 17.4886 11.7833 17.4886 13.1667H22.5114C22.5114 11.7833 21.3871 10.6667 20 10.6667ZM22.5114 14.8333V15.6667C22.5114 16.125 22.8864 16.5 23.3485 16.5C23.8106 16.5 24.1857 16.125 24.1857 15.6667V14.8333H25.2086C25.6331 14.8333 25.9897 15.15 26.0399 15.5667L27.3199 26.4C27.3785 26.9 26.9901 27.3333 26.4886 27.3333H13.5114C13.0099 27.3333 12.6215 26.9 12.6801 26.4L13.9601 15.5667C14.0103 15.15 14.3669 14.8333 14.7914 14.8333H15.8143V15.6667C15.8143 16.125 16.1894 16.5 16.6515 16.5C17.1136 16.5 17.4886 16.125 17.4886 15.6667V14.8333H22.5114ZM15.8143 13.1667H14.7914C13.5181 13.1667 12.4466 14.1167 12.2975 15.375L11.0176 26.2083C10.8418 27.6917 12.0079 29 13.5114 29H26.4886C27.9921 29 29.1582 27.6917 28.9824 26.2083L27.7025 15.375C27.5534 14.1167 26.4819 13.1667 25.2086 13.1667H24.1857C24.1857 10.8667 22.3113 9 20 9C17.6878 9 15.8143 10.8667 15.8143 13.1667Z" fill="white"/>
<rect x="23" y="20" width="8" height="9" fill="$green"/>
<rect x="24" y="24" width="6" height="2" fill="white"/>
<rect x="26" y="28" width="6" height="2" transform="rotate(-90 26 28)" fill="white"/>
</svg>
