<svg width="12" height="13" viewBox="0 0 12 13" fill="none" xmlns="http://www.w3.org/2000/svg">
<path fill-rule="evenodd" clip-rule="evenodd" d="M5.82342 1.08333C4.92588 1.08333 4.19842 1.80917 4.19842 2.70833H7.44842C7.44842 1.80917 6.72096 1.08333 5.82342 1.08333ZM7.44842 3.79167V4.33333C7.44842 4.63125 7.69109 4.875 7.99009 4.875C8.28909 4.875 8.53175 4.63125 8.53175 4.33333V3.79167H9.19367C9.46829 3.79167 9.69904 3.9975 9.73154 4.26833L10.5598 11.31C10.5977 11.635 10.3463 11.9167 10.0219 11.9167H1.62496C1.3005 11.9167 1.04917 11.635 1.08709 11.31L1.91529 4.26833C1.94779 3.9975 2.17854 3.79167 2.45317 3.79167H3.11509V4.33333C3.11509 4.63125 3.35775 4.875 3.65675 4.875C3.95575 4.875 4.19842 4.63125 4.19842 4.33333V3.79167H7.44842ZM3.11509 2.70833H2.45317C1.62929 2.70833 0.935961 3.32583 0.839544 4.14375L0.0113355 11.1854C-0.102414 12.1496 0.652127 13 1.62496 13H10.0219C10.9947 13 11.7493 12.1496 11.6355 11.1854L10.8073 4.14375C10.7109 3.32583 10.0175 2.70833 9.19367 2.70833H8.53175C8.53175 1.21333 7.31896 0 5.82342 0C4.32734 0 3.11509 1.21333 3.11509 2.70833Z" fill="white"/>
</svg>
