<svg width="48" height="40" viewBox="0 0 48 40" fill="none" xmlns="http://www.w3.org/2000/svg">
<g clip-path="url(#clip0)">
<g filter="url(#filter0_dd)">
<rect x="-3.05176e-05" width="48" height="40" rx="10" fill="$green"/>
</g>
<path fill-rule="evenodd" clip-rule="evenodd" d="M23.8234 15.0833C22.9259 15.0833 22.1984 15.8092 22.1984 16.7083H25.4484C25.4484 15.8092 24.721 15.0833 23.8234 15.0833ZM25.4484 17.7917V18.3333C25.4484 18.6312 25.6911 18.875 25.9901 18.875C26.2891 18.875 26.5318 18.6312 26.5318 18.3333V17.7917H27.1937C27.4683 17.7917 27.699 17.9975 27.7315 18.2683L28.5598 25.31C28.5977 25.635 28.3463 25.9167 28.0219 25.9167H19.625C19.3005 25.9167 19.0492 25.635 19.0871 25.31L19.9153 18.2683C19.9478 17.9975 20.1785 17.7917 20.4532 17.7917H21.1151V18.3333C21.1151 18.6312 21.3578 18.875 21.6568 18.875C21.9558 18.875 22.1984 18.6312 22.1984 18.3333V17.7917H25.4484ZM21.1151 16.7083H20.4532C19.6293 16.7083 18.936 17.3258 18.8395 18.1438L18.0113 25.1854C17.8976 26.1496 18.6521 27 19.625 27H28.0219C28.9947 27 29.7493 26.1496 29.6355 25.1854L28.8073 18.1438C28.7109 17.3258 28.0175 16.7083 27.1937 16.7083H26.5318C26.5318 15.2133 25.319 14 23.8234 14C22.3273 14 21.1151 15.2133 21.1151 16.7083Z" fill="white"/>
</g>
<defs>
<filter id="filter0_dd" x="-10" y="-12" width="68" height="64" filterUnits="userSpaceOnUse" color-interpolation-filters="sRGB">
<feFlood flood-opacity="0" result="BackgroundImageFix"/>
<feColorMatrix in="SourceAlpha" type="matrix" values="0 0 0 0 0 0 0 0 0 0 0 0 0 0 0 0 0 0 127 0"/>
<feOffset dy="-2"/>
<feGaussianBlur stdDeviation="5"/>
<feColorMatrix type="matrix" values="0 0 0 0 0.847059 0 0 0 0 0.847059 0 0 0 0 0.847059 0 0 0 0.5 0"/>
<feBlend mode="normal" in2="BackgroundImageFix" result="effect1_dropShadow"/>
<feColorMatrix in="SourceAlpha" type="matrix" values="0 0 0 0 0 0 0 0 0 0 0 0 0 0 0 0 0 0 127 0"/>
<feOffset dy="2"/>
<feGaussianBlur stdDeviation="5"/>
<feColorMatrix type="matrix" values="0 0 0 0 0.847059 0 0 0 0 0.847059 0 0 0 0 0.847059 0 0 0 0.5 0"/>
<feBlend mode="normal" in2="effect1_dropShadow" result="effect2_dropShadow"/>
<feBlend mode="normal" in="SourceGraphic" in2="effect2_dropShadow" result="shape"/>
</filter>
<clipPath id="clip0">
<rect width="48" height="40" fill="white"/>
</clipPath>
</defs>
</svg>
