<svg width="17" height="17" viewBox="0 0 17 17" fill="none" xmlns="http://www.w3.org/2000/svg">
<g opacity="0.704218">
<path fill-rule="evenodd" clip-rule="evenodd" d="M12.5268 6.76337C12.5268 8.25554 11.9563 9.61771 11.0223 10.6421L15.9213 15.5412C16.0262 15.6462 16.0262 15.8162 15.9213 15.9212C15.8163 16.0262 15.6463 16.0262 15.5413 15.9212L10.6421 11.0221C9.61762 11.9561 8.25596 12.5266 6.7633 12.5266C3.58549 12.5266 1 9.94105 1 6.7632C1 3.58535 3.58549 0.999833 6.7633 1C9.94128 1 12.5268 3.58551 12.5268 6.76337ZM1.53748 6.76343C1.53748 9.64494 3.88163 11.9893 6.76345 11.9893C9.64493 11.9893 11.9894 9.64478 11.9894 6.76343C11.9894 3.88158 9.6451 1.53723 6.76345 1.53723C3.88163 1.53723 1.53748 3.88158 1.53748 6.76343Z" fill="black"/>
<path d="M11.0223 10.6421L10.6528 10.3052L10.3311 10.658L10.6687 10.9956L11.0223 10.6421ZM15.9213 15.5412L15.5677 15.8948L15.5677 15.8948L15.9213 15.5412ZM15.9213 15.9212L16.2748 16.2748L16.2748 16.2748L15.9213 15.9212ZM15.5413 15.9212L15.1877 16.2748H15.1877L15.5413 15.9212ZM10.6421 11.0221L10.9957 10.6685L10.6581 10.3309L10.3053 10.6526L10.6421 11.0221ZM6.7633 1L6.76328 1.5H6.7633V1ZM11.3917 10.9789C12.4062 9.86641 13.0268 8.38538 13.0268 6.76337H12.0268C12.0268 8.1257 11.5064 9.36902 10.6528 10.3052L11.3917 10.9789ZM16.2748 15.1877L11.3758 10.2885L10.6687 10.9956L15.5677 15.8948L16.2748 15.1877ZM16.2748 16.2748C16.5751 15.9745 16.5751 15.488 16.2748 15.1877L15.5677 15.8948C15.4774 15.8045 15.4774 15.658 15.5677 15.5677L16.2748 16.2748ZM15.1877 16.2748C15.488 16.5751 15.9745 16.5751 16.2748 16.2748L15.5677 15.5677C15.658 15.4774 15.8045 15.4774 15.8948 15.5677L15.1877 16.2748ZM10.2886 11.3756L15.1877 16.2748L15.8948 15.5677L10.9957 10.6685L10.2886 11.3756ZM6.7633 13.0266C8.38583 13.0266 9.86633 12.4059 10.979 11.3916L10.3053 10.6526C9.36891 11.5062 8.12609 12.0266 6.7633 12.0266V13.0266ZM0.5 6.7632C0.5 10.2172 3.30934 13.0266 6.7633 13.0266V12.0266C3.86163 12.0266 1.5 9.66491 1.5 6.7632H0.5ZM6.76333 0.5C3.30934 0.499819 0.5 3.30922 0.5 6.7632H1.5C1.5 3.86148 3.86163 1.49985 6.76328 1.5L6.76333 0.5ZM13.0268 6.76337C13.0268 3.30937 10.2174 0.5 6.7633 0.5V1.5C9.66515 1.5 12.0268 3.86166 12.0268 6.76337H13.0268ZM6.76345 11.4893C4.15778 11.4893 2.03748 9.36881 2.03748 6.76343H1.03748C1.03748 9.92108 3.60548 12.4893 6.76345 12.4893V11.4893ZM11.4894 6.76343C11.4894 9.36863 9.36879 11.4893 6.76345 11.4893V12.4893C9.92107 12.4893 12.4894 9.92092 12.4894 6.76343H11.4894ZM6.76345 2.03723C9.36894 2.03723 11.4894 4.1577 11.4894 6.76343H12.4894C12.4894 3.60545 9.92126 1.03723 6.76345 1.03723V2.03723ZM2.03748 6.76343C2.03748 4.15769 4.1578 2.03723 6.76345 2.03723V1.03723C3.60546 1.03723 1.03748 3.60546 1.03748 6.76343H2.03748Z" fill="black"/>
</g>
</svg>
